<svg fill="#6f9a37" xmlns="http://www.w3.org/2000/svg" data-name="Layer 1" viewBox="0 0 100 100" x="0px" y="0px"><title>11</title><g data-name="Group"><path data-name="Compound Path" d="M72,55.27V26.78a4,4,0,0,0-4-4H57.85V17.53a17.05,17.05,0,0,0-34.1,0v5.25H13.6a4,4,0,0,0-4,4V80.44a10,10,0,0,0,10,10H50.18A22.29,22.29,0,1,0,72,55.27ZM31.75,17.53a9.05,9.05,0,0,1,18.1,0v5.25H31.75ZM19.6,82.44a2,2,0,0,1-2-2V30.78h6.15v8.5a4,4,0,0,0,8,0v-8.5h18.1v8.5a4,4,0,1,0,8,0v-8.5H64V55.31A22.27,22.27,0,0,0,46.44,82.44Zm48.51,9.07A14.29,14.29,0,1,1,82.4,77.22,14.31,14.31,0,0,1,68.11,91.51Z"></path><path data-name="Path" d="M72.11,73.22V69.49a4,4,0,0,0-8,0v3.73H60.38a4,4,0,1,0,0,8h3.73v3.73a4,4,0,0,0,8,0V81.22h3.73a4,4,0,0,0,0-8Z"></path></g></svg>