<svg  fill="#6f9a37" xmlns:dc="http://purl.org/dc/elements/1.1/" xmlns:cc="http://creativecommons.org/ns#" xmlns:rdf="http://www.w3.org/1999/02/22-rdf-syntax-ns#" xmlns:svg="http://www.w3.org/2000/svg" xmlns="http://www.w3.org/2000/svg" xmlns:sodipodi="http://sodipodi.sourceforge.net/DTD/sodipodi-0.dtd" xmlns:inkscape="http://www.inkscape.org/namespaces/inkscape" viewBox="0 0 16.933333 16.933334" version="1.1" x="0px" y="0px"><g transform="translate(0,-280.06665)"><path style="color:#000000;font-style:normal;font-variant:normal;font-weight:normal;font-stretch:normal;font-size:medium;line-height:normal;font-family:sans-serif;font-variant-ligatures:normal;font-variant-position:normal;font-variant-caps:normal;font-variant-numeric:normal;font-variant-alternates:normal;font-feature-settings:normal;text-indent:0;text-align:start;text-decoration:none;text-decoration-line:none;text-decoration-style:solid;text-decoration-color:#000000;letter-spacing:normal;word-spacing:normal;text-transform:none;writing-mode:lr-tb;direction:ltr;text-orientation:mixed;dominant-baseline:auto;baseline-shift:baseline;text-anchor:start;white-space:normal;shape-padding:0;clip-rule:nonzero;display:inline;overflow:visible;visibility:visible;opacity:1;isolation:auto;mix-blend-mode:normal;color-interpolation:sRGB;color-interpolation-filters:linearRGB;solid-color:#000000;solid-opacity:1;vector-effect:none;fill:#6f9a37;fill-opacity:1;fill-rule:nonzero;stroke:none;stroke-width:0.5291667;stroke-linecap:butt;stroke-linejoin:round;stroke-miterlimit:4;stroke-dasharray:none;stroke-dashoffset:0;stroke-opacity:1;color-rendering:auto;image-rendering:auto;shape-rendering:auto;text-rendering:auto;enable-background:accumulate" d="m 6.0802348,280.59632 c -0.0706,0.002 -0.13383,0.0291 -0.1813798,0.076 l -1.0583402,1.05885 c -0.05,0.0494 -0.0783,0.11675 -0.0785,0.18707 v 2.38175 H 2.9104449 c -0.1461201,2e-5 -0.2645701,0.11846 -0.2645899,0.26458 v 10.31877 c 0,0.87489 0.71261,1.5875 1.5874997,1.5875 h 8.4666703 c 0.8749,0 1.5875,-0.71261 1.5875,-1.5875 v -10.31877 c -10e-6,-0.14612 -0.11846,-0.26456 -0.26458,-0.26458 h -1.8526 v -2.38175 c 5.3e-4,-0.07 -0.0269,-0.13721 -0.076,-0.18707 l -1.05885,-1.05885 c -0.0499,-0.0491 -0.11712,-0.0764 -0.18707,-0.076 z m 0.2697501,0.52917 h 4.2323001 v 0.52917 H 6.3499849 Z m -0.5291701,0.3731 v 2.80137 h -0.52916 v -2.2722 z m 5.2911602,0 0.52916,0.52917 v 2.2722 h -0.52916 z m -4.7619901,0.68575 h 4.2323001 v 2.11562 H 6.3499849 Z m -3.175,2.64479 H 13.758315 v 10.05418 c 0,0.59089 -0.46743,1.05833 -1.05833,1.05833 H 4.2333148 c -0.59089,0 -1.0583299,-0.46744 -1.0583299,-1.05833 z m 5.2926999,2.64584 c -0.4352398,0 -0.79272,0.35954 -0.79272,0.79479 0,0.11553 0.0267,0.22464 0.0718,0.32401 -1.2386199,0.20809 -1.9974899,0.9384 -2.4174299,1.65829 -0.3411001,0.58475 -0.4730901,1.14946 -0.5265801,1.45728 h -0.3173 c -0.14903,0.0136 -0.2523099,0.12753 -0.25218,0.26355 v 0.26562 c 0,0.58174 0.4771099,1.05885 1.0588501,1.05885 h 6.3515501 c 0.58175,0 1.05627,-0.47711 1.05627,-1.05885 v -0.26562 c -5.29e-4,-0.14531 -0.11824,-0.26297 -0.26355,-0.26355 h -0.30334 c -0.0535,-0.3078 -0.18547,-0.87251 -0.52658,-1.45728 -0.42,-0.71999 -1.17903,-1.45031 -2.4179401,-1.65829 0.0452,-0.0994 0.0723,-0.20848 0.0723,-0.32401 0,-0.43525 -0.35799,-0.79479 -0.7932297,-0.79479 z m 0,0.52917 c 0.1492601,0 0.2635501,0.11636 0.2635501,0.26562 0,0.14926 -0.11429,0.26355 -0.2635501,0.26355 -0.1492599,0 -0.26562,-0.11429 -0.26562,-0.26355 0,-0.14926 0.1163601,-0.26562 0.26562,-0.26562 z m 0,1.05885 c 1.4993101,0 2.2521402,0.71985 2.6820102,1.45676 0.2715,0.46542 0.38867,0.90959 0.44441,1.18959 h -0.47955 c -0.34506,0.008 -0.34506,0.52153 0,0.52917 h 1.05626 c 0,0.29774 -0.22936,0.52968 -0.5271,0.52968 H 5.2921649 c -0.2977301,0 -0.52968,-0.23194 -0.52968,-0.52968 h 3.96875 c 0.34507,-0.008 0.34507,-0.52154 0,-0.52917 h -3.38997 c 0.0557,-0.27999 0.1734198,-0.72415 0.44493,-1.18959 0.4298601,-0.73691 1.1821901,-1.45676 2.6814899,-1.45676 z m 1.3100001,2.64635 c -0.35727,0.0242 -0.33295,0.53796 0.0124,0.52917 h 0.2656201 c 0.34506,-0.008 0.34506,-0.52154 0,-0.52917 z"></path></g></svg>